<?xml version="1.0" encoding="utf-8"?>
<!-- Generator: Adobe Illustrator 16.0.0, SVG Export Plug-In . SVG Version: 6.00 Build 0)  -->
<!DOCTYPE svg PUBLIC "-//W3C//DTD SVG 1.1//EN" "http://www.w3.org/Graphics/SVG/1.1/DTD/svg11.dtd">
<svg version="1.1" id="Capa_1" xmlns="http://www.w3.org/2000/svg" xmlns:xlink="http://www.w3.org/1999/xlink" x="0px" y="0px"
	 width="1190.55px" height="841.89px" viewBox="0 0 1190.55 841.89" enable-background="new 0 0 1190.55 841.89"
	 xml:space="preserve">
<path fill-rule="evenodd" clip-rule="evenodd" d="M686.553,231.476c-2.483,13.427-4.709,25.667-7.015,37.891
	c-5.114,27.123-10.271,54.238-15.398,81.357c-0.154,0.815-0.242,1.651-0.271,2.48c-0.17,4.904-0.388,9.962,4.833,12.666
	c3.834,1.985,9.322-0.173,13.623-4.984c11.771-13.165,23.511-26.358,35.276-39.528c5.206-5.828,10.443-11.627,16.371-18.224
	c1.563,5.384,2.916,10.034,4.263,14.686c1.2,4.15,2.386,8.305,3.594,12.453c2.172,7.46,6.625,10.172,14.343,8.557
	c19.037-3.985,38.059-8.044,57.093-12.044c1.715-0.36,3.475-0.508,5.866-0.847c-4.361,15.942-8.53,31.13-12.669,46.327
	c-2.357,8.659-4.786,17.301-6.953,26.008c-1.823,7.324-0.357,9.864,6.42,12.942c7.518,3.415,14.969,6.976,23.11,10.783
	c-11.444,9.305-22.257,18.105-33.08,26.893c-25.347,20.579-50.719,41.126-76.038,61.737c-9.548,7.772-10.535,11.221-6.988,22.949
	c2.679,8.858,5.391,17.705,8.324,27.332c-11.606-1.548-22.442-2.938-33.263-4.445c-24.877-3.465-49.735-7.059-74.622-10.445
	c-8.353-1.137-12.904,3.158-12.716,11.683c0.806,36.479,1.574,72.962,2.629,109.435c0.14,4.858-1.062,6.627-5.96,6.142
	c-3.78-0.375-7.628-0.075-12.157-0.075c0-1.987-0.061-3.581,0.009-5.17c1.519-34.781,3.052-69.562,4.584-104.344
	c0.081-1.831,0.216-3.66,0.268-5.492c0.24-8.569-4.503-13.249-12.937-12.208c-15.519,1.917-31.008,4.076-46.498,6.226
	c-19.935,2.767-39.856,5.626-59.787,8.419c-0.445,0.062-0.934-0.184-1.832-0.381c2.797-9.307,5.169-18.635,8.427-27.644
	c3.288-9.095,0.694-15.596-6.542-21.432c-34.75-28.023-69.361-56.219-104.017-84.359c-1.766-1.434-3.492-2.915-5.797-4.843
	c7.642-3.584,14.63-6.972,21.711-10.154c8.54-3.838,9.833-5.84,7.386-15.07c-5.961-22.491-12.193-44.911-18.308-67.361
	c-0.249-0.915-0.395-1.857-0.781-3.713c8.328,1.688,16.085,3.207,23.819,4.838c13.012,2.744,25.998,5.605,39.014,8.328
	c7.665,1.604,12.123-1.149,14.292-8.64c2.528-8.73,5.028-17.468,7.804-27.121c8.761,9.782,16.941,18.902,25.105,28.037
	c8.992,10.062,17.956,20.15,26.973,30.19c0.989,1.101,2.118,2.514,3.41,2.818c3.385,0.798,7.531,2.397,10.166,1.141
	c2.35-1.12,4.406-5.69,4.273-8.633c-0.334-7.422-1.757-14.826-3.129-22.165c-6.081-32.523-12.303-65.021-18.447-97.532
	c-0.273-1.442-0.289-2.933-0.504-5.25c9.089,4.706,17.58,9.124,26.094,13.497c2.512,1.291,5.007,2.682,7.65,3.636
	c8.175,2.95,13.324,0.979,17.447-6.68c9.545-17.726,19.001-35.5,28.509-53.245c3.657-6.827,7.36-13.629,11.396-21.098
	c1.296,2.278,2.208,3.8,3.046,5.362c12.115,22.577,24.214,45.163,36.333,67.737c5.174,9.638,10.903,11.623,20.937,6.716
	C665.375,242.655,675.309,237.292,686.553,231.476z"/>
</svg>
